<svg version="1.2" xmlns="http://www.w3.org/2000/svg" viewBox="0 0 210 200" width="210" height="200">
	<title>svgexport-2-svg</title>
	<defs>
		<linearGradient id="g1" x1="104.8" y1="199.5" x2="104.8" y2="0" gradientUnits="userSpaceOnUse">
			<stop offset="0" stop-color="#3a05ff"/>
			<stop offset="1" stop-color="#007eff"/>
		</linearGradient>
	</defs>
	<style>
		.s0 { fill: url(#g1) } 
	</style>
	<path id="Layer" fill-rule="evenodd" class="s0" d="m154.6 199.5h-86.5c-8.7 0-16.8-4.9-21.1-12.5l-43.8-75.1c-4.3-7.6-4.3-16.8 0-23.8l43.8-76.2c4.3-7.6 11.9-11.9 20.5-11.9h87.1c8.6 0 17.2 4.9 21.6 12.4l31.3 54.6c0.6 0.6 0.6 1.6 0 2.2 0 0.5-0.5 1.1-1.1 1.6l-10.8 6c-11.3 6.4-25.9 2.7-32.4-8.7l-17.3-29.7h-34.6v122.7h34.6l17.8-30.8-29.7-17.3c-5.9-3.3-9.7-9.8-9.7-16.8v-29.2c0-1.1 0.5-1.6 1.1-2.1 1.1-0.6 1.6-0.6 2.7 0l71.8 41c4.9 2.7 8.2 7.1 9.2 11.9 1.1 4.9 0.6 10.3-2.1 15.2l-31.4 54c-3.8 7.6-11.9 12.5-21 12.5zm0-5.4c7 0 13.5-3.8 17.2-9.8l31.4-54c2.1-3.3 2.7-7.1 1.6-10.8-1.1-3.8-3.2-7.1-6.5-8.7l-14.6-8.1-52.9-30.8v24.3c0 4.9 2.7 9.7 7 12.4l31.9 18.4c1.1 0.6 1.6 2.2 1.1 3.8l-20 34.6c-0.6 1.1-1.7 1.1-2.2 1.1h-40.5c-1.6 0-2.7-1.1-2.7-2.2 0 0 0 0 0-0.5v-128.1c0-1.6 1.1-2.7 2.1-2.7 0 0 0 0 0.6 0h40.5c1.1 0 1.6 0.5 2.2 1.1l17.8 30.8c4.9 8.6 16.2 11.9 25.4 7l8.6-4.9-30.2-51.9c-4.3-5.9-10.8-9.7-17.8-9.7h-87.1c-6.4 0-12.4 3.2-15.6 9.2l-43.8 76.2c-3.2 6-3.2 13 0 18.4l43.8 75.1c3.2 6 9.2 9.8 16.2 9.8zm-80.5-27.6c-1.1 0-1.7-0.6-2.2-1.1l-37.3-63.8q-0.8-1.6 0-3.2l37.3-63.8c0.5-1.1 1.6-1.6 3.3-1.1 1 0.6 2.1 1.6 2.1 2.7v128.1c0 1.1-1.1 2.2-2.1 2.7-0.6-0.5-1.1-0.5-1.1-0.5zm-34.1-67l31.4 54v-107.6z"/>
</svg>