<svg version="1.2" xmlns="http://www.w3.org/2000/svg" viewBox="0 0 400 73" width="1134" height="207">
	<title>svgexport-2-svg</title>
	<defs>
		<linearGradient id="g1" x1="38.2" y1="72.8" x2="38.2" y2="0" gradientUnits="userSpaceOnUse">
			<stop offset="0" stop-color="#3a05ff"/>
			<stop offset="1" stop-color="#007eff"/>
		</linearGradient>
	</defs>
	<style>
		.s0 { fill: url(#g1) } 
	</style>
	<path id="Layer" fill-rule="evenodd" class="s0" d="m56.4 72.8h-31.6c-3.1 0-6.1-1.8-7.7-4.5l-15.9-27.5c-1.6-2.7-1.6-6.1 0-8.6l15.9-27.9c1.6-2.7 4.4-4.3 7.5-4.3h31.8c3.1 0 6.3 1.8 7.8 4.5l11.5 20c0.2 0.2 0.2 0.6 0 0.8 0 0.2-0.2 0.3-0.4 0.5l-4 2.2c-4.1 2.4-9.4 1-11.8-3.1l-6.3-10.9h-12.6v44.8h12.6l6.5-11.3-10.8-6.3c-2.2-1.1-3.6-3.5-3.6-6.1v-10.6c0-0.4 0.2-0.6 0.4-0.8 0.4-0.2 0.6-0.2 1 0l26.2 15c1.8 1 3 2.5 3.4 4.3 0.4 1.8 0.2 3.8-0.8 5.5l-11.5 19.8c-1.3 2.7-4.3 4.5-7.6 4.5zm0-2c2.5 0 4.9-1.4 6.3-3.5l11.4-19.8c0.8-1.1 1-2.5 0.6-3.9-0.4-1.4-1.2-2.6-2.4-3.2l-5.3-2.9-19.3-11.3v8.9c0 1.8 1 3.6 2.5 4.6l11.7 6.7c0.4 0.2 0.6 0.8 0.4 1.3l-7.3 12.7c-0.2 0.4-0.6 0.4-0.8 0.4h-14.8c-0.6 0-1-0.4-1-0.8 0 0 0 0 0-0.2v-46.8c0-0.6 0.4-1 0.8-1 0 0 0 0 0.2 0h14.8c0.4 0 0.6 0.2 0.8 0.4l6.5 11.3c1.8 3.1 5.9 4.3 9.2 2.5l3.2-1.7-11-19c-1.6-2.1-4-3.5-6.5-3.5h-31.8c-2.3 0-4.5 1.2-5.7 3.3l-15.9 27.8c-1.2 2.2-1.2 4.8 0 6.8l15.9 27.4c1.2 2.1 3.4 3.5 5.9 3.5zm-29.3-10c-0.4 0-0.6-0.2-0.8-0.4l-13.6-23.3q-0.3-0.6 0-1.2l13.6-23.3c0.2-0.4 0.6-0.6 1.2-0.4 0.4 0.2 0.8 0.6 0.8 1v46.8c0 0.4-0.4 0.8-0.8 1-0.2-0.2-0.4-0.2-0.4-0.2zm-12.4-24.5l11.4 19.7v-39.2z"/>
	<g id="Layer">
	</g>
</svg>