<?xml version="1.0" encoding="utf-8"?>
<!-- Generator: Adobe Illustrator 25.1.0, SVG Export Plug-In . SVG Version: 6.00 Build 0)  -->
<svg version="1.1" id="Calque_1" xmlns="http://www.w3.org/2000/svg" xmlns:xlink="http://www.w3.org/1999/xlink" x="0px" y="0px"
	 viewBox="0 0 384 448" style="enable-background:new 0 0 384 448;" xml:space="preserve">
<style type="text/css">
	.st0{fill:url(#SVGID_1_);}
	.st1{fill:#FFFFFF;}
</style>
<g>
	<g id="Layer_10">
		<linearGradient id="SVGID_1_" gradientUnits="userSpaceOnUse" x1="-21.4317" y1="49.5494" x2="366.4506" y2="437.4317">
			<stop  offset="0" style="stop-color:#05F24F"/>
			<stop  offset="0.4797" style="stop-color:#5029E5"/>
			<stop  offset="1" style="stop-color:#EC02F4"/>
		</linearGradient>
		<path class="st0" d="M288,96V10.1L375.4,112H304C295.2,112,288,104.8,288,96z M304,144c-26.5,0-48-21.5-48-48V0H48
			C21.5,0,0,21.5,0,48v352c0,26.5,21.5,48,48,48h288c26.5,0,48-21.5,48-48V144H304z"/>
	</g>
	<g>
		<path class="st1" d="M243.8,362.5L243.8,362.5h-90.1l0,0c-9,0-17.4-5.1-22-12.9l-45.6-78.2c-4.5-7.9-4.5-17.4,0-24.8l45.6-79.4
			c4.5-7.9,12.4-12.4,21.4-12.4h90.6l0,0c9,0,18,5.1,22.5,12.9l32.6,56.9c0.6,0.6,0.6,1.7,0,2.3c0,0.6-0.6,1.1-1.1,1.7l-11.3,6.2
			c-11.8,6.8-27,2.8-33.8-9l-18-31h-37.7v127.8h37.7l18.6-32.1l-31-18c-6.2-3.4-10.1-10.1-10.1-17.4v-30.4c0-1.1,0.6-1.7,1.1-2.3
			c1.1-0.6,1.7-0.6,2.8,0l74.9,42.8c5.1,2.8,8.4,7.3,9.6,12.4c1.1,5.1,0.6,10.7-2.3,15.8l-32.6,56.3
			C261.8,357.5,253.4,362.5,243.8,362.5z M153.7,356.9h90.1c7.3,0,14.1-3.9,18-10.1l32.6-56.3c2.3-3.4,2.8-7.3,1.7-11.3
			c-1.1-3.9-3.4-7.3-6.8-9l-15.2-8.4l0,0L219,229.7V255c0,5.1,2.8,10.1,7.3,12.9l33.2,19.1c1.1,0.6,1.7,2.3,1.1,3.9l-20.8,36
			c-0.6,1.1-1.7,1.1-2.3,1.1h-42.2c-1.7,0-2.8-1.1-2.8-2.8V192c0-1.7,1.1-2.8,2.8-2.8h42.2c1.1,0,1.7,0.6,2.3,1.1l18.6,32.1
			c5.1,9,16.9,12.4,26.5,7.3l9-5.1l-31.5-54c-4.5-6.2-11.3-10.1-18.6-10.1l0,0h-90.6c-6.8,0-12.9,3.4-16.3,9.6l-45.6,79.4
			c-3.4,6.2-3.4,13.5,0,19.1l45.6,78.2C140.2,353,146.4,356.9,153.7,356.9L153.7,356.9z M159.9,328.2c-1.1,0-1.7-0.6-2.3-1.1
			l-38.8-66.4c-0.6-1.1-0.6-2.3,0-3.4l38.8-66.4c0.6-1.1,1.7-1.7,3.4-1.1c1.1,0.6,2.3,1.7,2.3,2.8v133.4c0,1.1-1.1,2.3-2.3,2.8
			C160.5,328.2,159.9,328.2,159.9,328.2z M124.5,258.4l32.6,56.3v-112L124.5,258.4z"/>
	</g>
</g>
</svg>
