<svg version="1.2" xmlns="http://www.w3.org/2000/svg" viewBox="0 0 203 37" width="567" height="103">
	<title>graphlinq-svg</title>
	<defs>
		<linearGradient id="g1" x1="19.4" y1="0" x2="19.4" y2="36.9" gradientUnits="userSpaceOnUse">
			<stop offset="0" stop-color="#9a23e6"/>
			<stop offset="1" stop-color="#5519ee"/>
		</linearGradient>
	</defs>
	<style>
		.s0 { fill: url(#g1) } 
		.s1 { fill: #ece7fd } 
	</style>
	<g id="Layer">
		<g id="Layer">
			<path id="Layer" fill-rule="evenodd" class="s0" d="m28.6 36.9h-16c-1.6 0-3.1-0.9-3.9-2.3l-8.1-13.9c-0.8-1.4-0.8-3.1 0-4.4l8.1-14.1c0.8-1.4 2.2-2.2 3.8-2.2h16.1c1.6 0 3.2 0.9 4 2.3l5.8 10.1c0.1 0.1 0.1 0.3 0 0.4 0 0.1-0.1 0.2-0.2 0.3l-2 1.1c-2.1 1.2-4.8 0.5-6-1.6l-3.2-5.5h-6.7v22.7h6.7l3.3-5.7-5.5-3.2c-1.1-0.6-1.8-1.8-1.8-3.1v-5.4c0-0.2 0.1-0.3 0.2-0.4 0.2-0.1 0.3-0.1 0.5 0l13.3 7.6c0.9 0.5 1.5 1.3 1.7 2.2 0.2 0.9 0.1 1.9-0.4 2.8l-5.8 10c-0.7 1.4-2.2 2.3-3.9 2.3zm0-1c1.3 0 2.5-0.7 3.2-1.8l5.8-10c0.4-0.6 0.5-1.3 0.3-2-0.2-0.7-0.6-1.3-1.2-1.6l-2.7-1.5-9.8-5.7v4.5c0 0.9 0.5 1.8 1.3 2.3l5.9 3.4c0.2 0.1 0.3 0.4 0.2 0.7l-3.7 6.4c-0.1 0.2-0.3 0.2-0.4 0.2h-7.5c-0.3 0-0.5-0.2-0.5-0.5v-23.7c0-0.3 0.2-0.5 0.5-0.5h7.5c0.2 0 0.3 0.1 0.4 0.2l3.3 5.7c0.9 1.6 3 2.2 4.7 1.3l1.6-0.9-5.6-9.6c-0.8-1.1-2-1.8-3.3-1.8h-16.1c-1.2 0-2.3 0.6-2.9 1.7l-8.1 14.1c-0.6 1.1-0.6 2.4 0 3.4l8.1 13.9c0.6 1.1 1.7 1.8 3 1.8zm-14.9-5.1c-0.2 0-0.3-0.1-0.4-0.2l-6.9-11.8q-0.2-0.3 0-0.6l6.9-11.8c0.1-0.2 0.3-0.3 0.6-0.2 0.2 0.1 0.4 0.3 0.4 0.5v23.7c0 0.2-0.2 0.4-0.4 0.5-0.1-0.1-0.2-0.1-0.2-0.1zm-6.3-12.4l5.8 10v-19.9z"/>
		</g>
		<g id="Layer">
			<path id="Layer" fill-rule="evenodd" class="s1" d="m73.4 12.4v-1.6h4.6v15.1q0 3.7-2.4 5.7c-1.6 1.3-3.6 1.9-5.9 1.9-3.6 0-6.1-1.3-7.5-3.8l4.1-2.4c0.7 1.3 2 2 3.6 2q1.6 0 2.7-0.9c0.6-0.6 0.9-1.4 0.9-2.5v-1.5c-1.1 1.4-2.7 2.1-4.6 2.1-2.2 0-4.1-0.8-5.6-2.4-1.5-1.6-2.2-3.5-2.2-5.7 0-2.2 0.7-4.1 2.2-5.7 1.5-1.6 3.3-2.4 5.6-2.4q2.8 0 4.5 2.1zm-6.6 8.6c0.7 0.7 1.7 1 2.8 1 1.1 0 2-0.3 2.8-1 0.7-0.7 1.1-1.5 1.1-2.7 0-1.1-0.4-2-1.1-2.7-0.7-0.7-1.7-1-2.8-1-1.1 0-2 0.3-2.8 1-0.7 0.7-1.1 1.5-1.1 2.7 0 1.2 0.4 2.1 1.1 2.7z"/>
			<path id="Layer" class="s1" d="m86.3 10.7v2.8c0.3-1 0.9-1.8 1.8-2.3 0.9-0.6 1.9-0.8 3-0.8v5.4q-1.8-0.3-3.3 0.6-1.5 0.9-1.5 3v7.2h-4.8v-15.9z"/>
			<path id="Layer" fill-rule="evenodd" class="s1" d="m104.4 12.2v-1.5h4.8v15.9h-4.8v-1.5c-1.1 1.3-2.7 1.9-4.7 1.9q-3.2 0-5.4-2.4c-1.5-1.6-2.2-3.6-2.2-6 0-2.4 0.7-4.3 2.2-5.9q2.2-2.4 5.4-2.4c2 0 3.6 0.6 4.7 1.9zm-7.6 6.5c0 1.2 0.3 2.1 1 2.8 0.7 0.7 1.6 1 2.7 1 1.1 0 2-0.3 2.7-1 0.7-0.7 1-1.6 1-2.8 0-1.2-0.3-2.1-1-2.8-0.7-0.7-1.6-1-2.7-1-1.1 0-2 0.3-2.7 1-0.6 0.7-1 1.6-1 2.8z"/>
			<path id="Layer" fill-rule="evenodd" class="s1" d="m122.2 10.3q3.1 0 5.4 2.4c1.5 1.6 2.2 3.6 2.2 5.9 0 2.4-0.7 4.4-2.2 6q-2.2 2.4-5.4 2.4c-2.1 0-3.6-0.6-4.7-1.9v7.9h-4.8v-22.3h4.8v1.5c1-1.3 2.6-1.9 4.7-1.9zm-3.7 11.2c0.7 0.7 1.6 1 2.7 1 1.1 0 2-0.3 2.7-1 0.7-0.7 1.1-1.6 1.1-2.8 0-1.2-0.4-2.1-1.1-2.8-0.7-0.7-1.6-1-2.7-1-1.1 0-2 0.3-2.7 1-0.7 0.7-1 1.6-1 2.8-0.1 1.2 0.3 2.1 1 2.8z"/>
			<path id="Layer" class="s1" d="m141.8 10.3c1.7 0 3.1 0.6 4.2 1.7 1.1 1.2 1.7 2.8 1.7 4.8v9.8h-4.7v-9.1c0-0.9-0.3-1.6-0.8-2.1-0.5-0.5-1.2-0.8-2-0.8-0.9 0-1.7 0.3-2.2 0.8-0.5 0.6-0.8 1.4-0.8 2.4v8.7h-4.8v-22.1h4.8v7.9c1-1.4 2.5-2 4.6-2z"/>
			<path id="Layer" class="s1" d="m155.8 26.6h-4.8v-23.2h4.8z"/>
			<path id="Layer" class="s1" d="m164.1 26.6h-4.8v-15.9h4.8z"/>
			<path id="Layer" class="s1" d="m176.9 10.3c1.7 0 3.1 0.6 4.2 1.7 1.1 1.2 1.7 2.8 1.7 4.8v9.8h-4.8v-9.1c0-0.9-0.3-1.6-0.8-2.1-0.5-0.5-1.2-0.8-2-0.8-0.9 0-1.7 0.3-2.2 0.8-0.5 0.6-0.8 1.4-0.8 2.4v8.7h-4.8v-15.8h4.8v1.5c1.1-1.3 2.6-1.9 4.7-1.9z"/>
			<path id="Layer" fill-rule="evenodd" class="s1" d="m197.6 12.2v-1.5h4.8v22.3h-4.8v-7.9c-1.1 1.3-2.7 1.9-4.7 1.9q-3.1 0-5.4-2.4c-1.5-1.6-2.2-3.6-2.2-6 0-2.4 0.7-4.3 2.2-5.9q2.3-2.4 5.4-2.4c2.1 0 3.6 0.6 4.7 1.9zm-7.5 6.5c0 1.2 0.3 2.1 1 2.8 0.7 0.7 1.6 1 2.7 1 1.1 0 2-0.3 2.7-1 0.7-0.7 1-1.6 1-2.8 0-1.2-0.3-2.1-1-2.8-0.7-0.7-1.6-1-2.7-1-1.1 0-2 0.3-2.7 1-0.7 0.7-1 1.6-1 2.8z"/>
		</g>
	</g>
</svg>