<svg version="1.2" xmlns="http://www.w3.org/2000/svg" viewBox="0 0 200 200" width="200" height="200">
	<title>market-svg</title>
	<defs>
		<linearGradient id="g1" x1="99.2" y1="194" x2="99.2" y2="6.8" gradientUnits="userSpaceOnUse">
			<stop offset="0" stop-color="#79ff54"/>
			<stop offset="1" stop-color="#27ff7d"/>
		</linearGradient>
		<linearGradient id="g2" x1="895.3" y1="50.6" x2="895.3" y2="27.2" gradientUnits="userSpaceOnUse">
			<stop offset="0" stop-color="#79ff54"/>
			<stop offset="1" stop-color="#27ff7d"/>
		</linearGradient>
		<linearGradient id="g3" x1="929.4" y1="51.2" x2="929.4" y2="27.2" gradientUnits="userSpaceOnUse">
			<stop offset="0" stop-color="#79ff54"/>
			<stop offset="1" stop-color="#27ff7d"/>
		</linearGradient>
		<linearGradient id="g4" x1="954.4" y1="50.6" x2="954.4" y2="27.4" gradientUnits="userSpaceOnUse">
			<stop offset="0" stop-color="#79ff54"/>
			<stop offset="1" stop-color="#27ff7d"/>
		</linearGradient>
		<linearGradient id="g5" x1="975.3" y1="50.6" x2="975.3" y2="18.7" gradientUnits="userSpaceOnUse">
			<stop offset="0" stop-color="#79ff54"/>
			<stop offset="1" stop-color="#27ff7d"/>
		</linearGradient>
		<linearGradient id="g6" x1="998.5" y1="51.2" x2="998.5" y2="27.2" gradientUnits="userSpaceOnUse">
			<stop offset="0" stop-color="#79ff54"/>
			<stop offset="1" stop-color="#27ff7d"/>
		</linearGradient>
		<linearGradient id="g7" x1="1020.4" y1="50.8" x2="1020.4" y2="21.4" gradientUnits="userSpaceOnUse">
			<stop offset="0" stop-color="#79ff54"/>
			<stop offset="1" stop-color="#27ff7d"/>
		</linearGradient>
	</defs>
	<style>
		.s0 { fill: none } 
		.s1 { fill: url(#g1) } 
		.s2 { fill: #ece7fd } 
		.s3 { fill: url(#g2) } 
		.s4 { fill: url(#g3) } 
		.s5 { fill: url(#g4) } 
		.s6 { fill: url(#g5) } 
		.s7 { fill: url(#g6) } 
		.s8 { fill: url(#g7) } 
	</style>
	<path id="ee-background" class="s0" d="m0 0h200v200h-200z"/>
	<g id="Layer">
		<path id="Layer" fill-rule="evenodd" class="s1" d="m145.9 194h-81.2c-8.1 0-15.7-4.6-19.8-11.7l-41.1-70.5c-4-7.1-4-15.7 0-22.3l41.1-71.6c4.1-7.1 11.2-11.1 19.3-11.1h81.7c8.1 0 16.2 4.5 20.3 11.6l29.4 51.3c0.5 0.5 0.5 1.5 0 2 0 0.5-0.5 1-1 1.5l-10.1 5.6c-10.7 6.1-24.4 2.6-30.5-8.1l-16.2-27.9h-32.5v115.2h32.5l16.7-29-27.9-16.2c-5.6-3-9.1-9.1-9.1-15.7v-27.4c0-1 0.5-1.5 1-2 1-0.6 1.5-0.6 2.5 0l67.5 38.5c4.6 2.6 7.6 6.6 8.6 11.2 1.1 4.5 0.6 9.6-2 14.2l-29.4 50.7c-3.6 7.1-11.2 11.7-19.8 11.7zm-81.2-5.1h81.2c6.6 0 12.7-3.5 16.2-9.1l29.5-50.8c2-3 2.5-6.5 1.5-10.1-1-3.6-3.1-6.6-6.1-8.1l-13.7-7.6-49.7-29v22.9c0 4.5 2.5 9.1 6.6 11.7l29.9 17.2c1 0.5 1.5 2 1 3.6l-18.7 32.4c-0.6 1-1.6 1-2.1 1h-38c-1.6 0-2.6-1-2.6-2v-120.7c0-1.6 1-2.6 2.1-2.6h38.5c1 0 1.5 0.5 2.1 1l16.7 29c4.6 8.1 15.2 11.1 23.8 6.5l8.2-4.5-28.5-48.7c-4-5.6-10.1-9.2-16.7-9.2h-81.7c-6.1 0-11.7 3.1-14.7 8.7l-41.1 71.5c-3 5.6-3 12.2 0 17.3l41.1 70.5c3 5.6 8.6 9.1 15.2 9.1zm5.6-25.9c-1 0-1.5-0.5-2-1l-35-59.8q-0.8-1.6 0-3.1l35-59.9c0.5-1 1.5-1.5 3-1 1 0.5 2 1.5 2 2.6v120.2c0 1-1 2-2 2.6-0.5-0.6-1-0.6-1-0.6zm-32-62.9l29.5 50.8v-101z"/>
		<path id="Layer" fill-rule="evenodd" class="s2" d="m373.2 69.7v-8.1h23.4v76.6q0 19-12.2 28.9c-8.1 6.6-18.3 9.6-30 9.6-18.2 0-30.9-6.6-38-19.2l20.8-12.2c3.5 6.6 10.1 10.1 18.3 10.1q8.3 0 13.7-4.5c3-3.1 4.5-7.1 4.5-12.7v-7.6c-5.6 7.1-13.7 10.6-23.3 10.6-11.2 0-20.8-4-28.4-12.2-7.6-8.1-11.2-17.7-11.2-28.9 0-11.1 3.6-20.8 11.2-28.9 7.6-8.1 16.7-12.2 28.4-12.2q14.4 0 22.8 10.7zm-33.5 43.6c3.6 3.6 8.7 5.1 14.2 5.1 5.6 0 10.2-1.5 14.2-5.1 3.6-3.5 5.6-7.6 5.6-13.7 0-5.1-2-10.1-5.6-13.7-3.5-3.5-8.6-5.1-14.2-5.1-5.5 0-10.1 1.6-14.2 5.1-3.5 3.6-5.6 7.6-5.6 13.7 0 6.1 2.1 10.7 5.6 13.7zm99-52.2v14.2c1.5-5.1 4.5-9.2 9.1-11.7 4.6-3.1 9.6-4.1 15.2-4.1v27.4q-9.1-1.5-16.7 3.1-7.6 4.5-7.6 15.2v36.5h-24.4v-80.6zm91.9 7.6v-7.6h24.3v80.6h-24.3v-7.6c-5.6 6.6-13.7 9.7-23.9 9.7q-16 0-27.4-12.2c-7.6-8.1-11.2-18.3-11.2-30.5 0-12.1 3.6-21.8 11.2-29.9q11.4-12.2 27.4-12.2c10.2 0 18.3 3.1 23.9 9.7zm-38.6 32.9c0 6.1 1.5 10.7 5.1 14.3 3.5 3.5 8.1 5 13.7 5 5.6 0 10.1-1.5 13.7-5 3.5-3.6 5-8.2 5-14.3 0-6-1.5-10.6-5-14.2-3.6-3.5-8.1-5-13.7-5-5.6 0-10.2 1.5-13.7 5-3.1 3.6-5.1 8.2-5.1 14.2zm128.9-42.6q16 0 27.4 12.2c7.6 8.1 11.1 18.3 11.1 29.9 0 12.2-3.5 22.4-11.1 30.5q-11.4 12.2-27.4 12.2c-10.7 0-18.3-3.1-23.9-9.7v40.1h-24.3v-113.1h24.3v7.6c5.1-6.6 13.2-9.7 23.9-9.7zm-18.8 56.9c3.6 3.5 8.1 5 13.7 5 5.6 0 10.1-1.5 13.7-5 3.6-3.6 5.6-8.2 5.6-14.3 0-6-2-10.6-5.6-14.2-3.6-3.5-8.1-5-13.7-5-5.6 0-10.1 1.5-13.7 5-3.6 3.6-5.1 8.2-5.1 14.2-0.5 6.1 1.5 10.7 5.1 14.3zm118.2-56.9c8.7 0 15.8 3.1 21.3 8.7 5.6 6 8.7 14.2 8.7 24.3v49.7h-23.9v-46.1c0-4.6-1.5-8.2-4-10.7-2.6-2.5-6.1-4.1-10.2-4.1-4.6 0-8.6 1.6-11.2 4.1-2.5 3-4 7.1-4 12.2v44.1h-24.4v-112.1h24.4v40.1c5.1-7.1 12.7-10.2 23.3-10.2zm71.1 82.7h-24.4v-117.7h24.4zm42.1 0h-24.4v-80.7h24.4zm64.9-82.7c8.6 0 15.8 3.1 21.3 8.7 5.6 6 8.7 14.2 8.7 24.3v49.7h-24.4v-46.1c0-4.6-1.5-8.2-4.1-10.7-2.5-2.5-6-4-10.1-4-4.6 0-8.6 1.5-11.2 4-2.5 3.1-4 7.1-4 12.2v44.1h-24.4v-80.1h24.4v7.6c5.6-6.6 13.2-9.7 23.8-9.7zm105.1 9.7v-7.6h24.3v113.1h-24.3v-40.1c-5.6 6.6-13.7 9.7-23.9 9.7q-16 0-27.4-12.2c-7.6-8.1-11.2-18.3-11.2-30.5 0-12.1 3.6-21.8 11.2-29.9q11.4-12.2 27.4-12.2c10.7 0 18.3 3.1 23.9 9.7zm-38.1 33c0 6 1.5 10.6 5.1 14.2 3.5 3.5 8.1 5 13.7 5 5.6 0 10.1-1.5 13.7-5 3.5-3.6 5-8.2 5-14.2 0-6.1-1.5-10.7-5-14.3-3.6-3.5-8.1-5-13.7-5-5.6 0-10.2 1.5-13.7 5-3.6 3.6-5.1 8.2-5.1 14.3z"/>
		<path id="Layer" class="s3" d="m903.5 27.1c2.5 0 4.5 1 6 2.5 1.6 1.5 2.6 4.1 2.6 6.6v14.2h-5.1v-13.7c0-1.5-0.5-2.5-1-3.6q-1.5-1.5-3.1-1.5c-1.5 0-2.5 0.5-3.5 1.5q-1.5 1.6-1.5 4.6v12.7h-5.1v-13.7c0-1.5-0.5-3-1-3.6-0.5-1-2-1.5-3.1-1.5-1.5 0-2.5 0.5-3.5 1.5q-1.5 1.6-1.5 4.6v12.7h-5.1v-22.8h5.1v2.5c1.5-2 3.5-3.5 6.6-3.5 3 0 5 1 6.6 3.5 1-1.5 3.5-3 6.6-3z"/>
		<path id="Layer" fill-rule="evenodd" class="s4" d="m936.4 31.1v-3.5h5.1v22.8h-5.1v-3c-2 2.5-4.5 4-8.1 4-3 0-5.6-1-8.1-3.5-2-2.6-3.6-5.1-3.6-8.7 0-3.5 1.1-6.1 3.6-8.6 2-2.5 5.1-3.5 8.1-3.5 3.6 0 6.6 1.5 8.1 4zm-12.1 13.2c1.5 1.5 3 2 5 2 2.1 0 3.6-0.5 5.1-2 1.5-1.5 2-3 2-5.1 0-2-0.5-4-2-5-1.5-1.6-3-2.1-5.1-2.1-2 0-3.5 0.5-5 2.1-1.6 1.5-2.1 3-2.1 5 0 2.1 0.5 3.6 2.1 5.1z"/>
		<path id="Layer" class="s5" d="m953.2 27.6v4c1-3 3.5-4 7.1-4v5.5c-2 0-3.6 0.6-5.1 1.6-1.5 1-2 2.5-2 5v11.7h-5.1v-23.8z"/>
		<path id="Layer" class="s6" d="m975 38.7l10.7 11.7h-6.1l-9.7-10.1v10.6h-5.1v-32.5h5.1v19.3l8.6-10.1h6.1z"/>
		<path id="Layer" fill-rule="evenodd" class="s7" d="m1010 41.3h-18.3c0.5 1.5 1.1 3 2.6 4 1.5 1 3 1.5 5.1 1.5q3.8 0 6-3l4.1 2.5c-2 3.6-5.6 5.1-10.1 5.1-3.6 0-6.6-1-9.2-3.5-2.5-2.6-3.5-5.1-3.5-8.7 0-3.5 1-6.1 3.5-8.6 2-2.5 5.1-3.5 8.6-3.5 3.6 0 6.1 1 8.2 3.5 2 2.5 3 5.1 3 8.6 0.5 0.5 0 1.6 0 2.1zm-18.3-4.1h13.2c-0.5-2-1-3-2-4.1-1-1-2.5-1.5-4.1-1.5q-3 0-4.5 1.5c-1.5 1.1-2.1 2.6-2.6 4.1z"/>
		<path id="Layer" class="s8" d="m1027.8 27.6v4.5h-5.6v11.2c0 1 0 1.5 0.5 2 0.5 0.5 1 0.5 2 0.5h3.1v4.6c-3.6 0.5-6.6 0-8.2-1-1.5-1-2.5-3.1-2.5-6.1v-10.7h-4v-5h4v-5.1l5.1-1.5v6.6z"/>
	</g>
</svg>