<!--?xml version="1.0" encoding="utf-8"?-->
<!-- Generator: Adobe Illustrator 25.1.0, SVG Export Plug-In . SVG Version: 6.00 Build 0)  -->
<svg version="1.1" id="Calque_1" xmlns="http://www.w3.org/2000/svg" xmlns:xlink="http://www.w3.org/1999/xlink" x="0px" y="0px" viewBox="0 0 340.6 324.3" style="" xml:space="preserve">
<style type="text/css">
	.st0{fill:none;stroke:#ECE7FD;stroke-width:5;stroke-linecap:round;stroke-linejoin:round;stroke-miterlimit:10;}
</style>
<g>
	<path class="st0 BzEoNgYu_0" d="M248.9,319.8L248.9,319.8H112.2l0,0c-13.7,0-26.5-7.7-33.3-19.7L9.6,181.4c-6.8-12-6.8-26.5,0-37.6L78.9,23.3
		c6.8-12,18.8-18.8,32.5-18.8h137.6l0,0c13.7,0,27.3,7.7,34.2,19.7l49.6,86.3c0.9,0.9,0.9,2.6,0,3.4c0,0.9-0.9,1.7-1.7,2.6
		l-17.1,9.4c-17.9,10.3-41,4.3-51.3-13.7l-27.3-47H178v194h57.3l28.2-48.7l-47-27.3c-9.4-5.1-15.4-15.4-15.4-26.5v-46.1
		c0-1.7,0.9-2.6,1.7-3.4c1.7-0.9,2.6-0.9,4.3,0L320.7,172c7.7,4.3,12.8,11.1,14.5,18.8c1.7,7.7,0.9,16.2-3.4,23.9l-49.6,85.5
		C276.3,312.2,263.4,319.8,248.9,319.8z"></path>
	<path class="st0 BzEoNgYu_1" d="M248.9,13"></path>
	<path class="st0 BzEoNgYu_2" d="M70,161.7L125.1,256.7L125.1,67.6Z"></path>
</g>
<style data-made-with="vivus-instant">.BzEoNgYu_0{stroke-dasharray:1777 1779;stroke-dashoffset:1778;animation:BzEoNgYu_draw 1333ms linear 0ms forwards;}.BzEoNgYu_1{stroke-dasharray:0 2;stroke-dashoffset:1;animation:BzEoNgYu_draw 1333ms linear 333ms forwards;}.BzEoNgYu_2{stroke-dasharray:408 410;stroke-dashoffset:409;animation:BzEoNgYu_draw 1333ms linear 666ms forwards;}@keyframes BzEoNgYu_draw{100%{stroke-dashoffset:0;}}@keyframes BzEoNgYu_fade{0%{stroke-opacity:1;}93.54838709677419%{stroke-opacity:1;}100%{stroke-opacity:0;}}</style></svg>
