<svg xmlns="http://www.w3.org/2000/svg" xmlns:xlink="http://www.w3.org/1999/xlink" version="1.1" id="Layer_1" x="0px" y="0px" viewBox="0 0 202.4 36.9" style="enable-background:new 0 0 202.4 36.9;" xml:space="preserve" width="202.4"  height="36.9" >
<style type="text/css">
	.st0{fill:url(#SVGID_1_);}
	.st1{fill:#ECE7FD;}
	.st2{fill:url(#SVGID_2_);}
	.st3{fill:url(#SVGID_3_);}
	.st4{fill:url(#SVGID_4_);}
	.st5{fill:url(#SVGID_5_);}
	.st6{fill:url(#SVGID_6_);}
	.st7{fill:url(#SVGID_7_);}
	.st8{fill:url(#SVGID_8_);}
	.st9{fill:url(#SVGID_9_);}
	.st10{fill:url(#SVGID_10_);}
</style>
<linearGradient id="SVGID_1_" gradientUnits="userSpaceOnUse" x1="19.3983" y1="38" x2="19.3983" y2="1.1" gradientTransform="matrix(1 0 0 -1 0 38)">
	<stop offset="0" style="stop-color:#FE0071"/>
	<stop offset="1" style="stop-color:#FF052A"/>
</linearGradient>
<path class="st0" d="M28.6,36.9L28.6,36.9h-16c-1.6,0-3.1-0.9-3.9-2.3L0.6,20.7c-0.8-1.4-0.8-3.1,0-4.4L8.7,2.2  C9.5,0.8,10.9,0,12.5,0h16.1c1.6,0,3.2,0.9,4,2.3l5.8,10.1c0.1,0.1,0.1,0.3,0,0.4c0,0.1-0.1,0.2-0.2,0.3l-2,1.1  c-2.1,1.2-4.8,0.5-6-1.6L27,7.1h-6.4v22.7H27l3.3-5.7l-5.5-3.2c-1.1-0.6-1.8-1.8-1.8-3.1v-5.4c0-0.2,0.1-0.3,0.2-0.4  c0.2-0.1,0.3-0.1,0.5,0L37,19.6c0.9,0.5,1.5,1.3,1.7,2.2s0.1,1.9-0.4,2.8l-5.8,10C31.8,36,30.3,36.9,28.6,36.9z M12.6,35.9h16  c1.3,0,2.5-0.7,3.2-1.8l5.8-10c0.4-0.6,0.5-1.3,0.3-2s-0.6-1.3-1.2-1.6L34,19l-9.8-5.7v4.5c0,0.9,0.5,1.8,1.3,2.3l5.9,3.4  c0.2,0.1,0.3,0.4,0.2,0.7l-3.7,6.4c-0.1,0.2-0.3,0.2-0.4,0.2H20c-0.3,0-0.5-0.2-0.5-0.4c0,0,0,0,0-0.1V6.6c0-0.3,0.2-0.5,0.4-0.5  c0,0,0,0,0.1,0h7.5c0.2,0,0.3,0.1,0.4,0.2l3.3,5.7c0.9,1.6,3,2.2,4.7,1.3l1.6-0.9l-5.6-9.6c-0.8-1.1-2-1.8-3.3-1.8l0,0H12.5  c-1.2,0-2.3,0.6-2.9,1.7L1.5,16.8c-0.6,1.1-0.6,2.4,0,3.4l8.1,13.9C10.2,35.2,11.3,35.9,12.6,35.9C12.6,35.9,12.6,35.9,12.6,35.9z   M13.7,30.8c-0.2,0-0.3-0.1-0.4-0.2L6.4,18.8c-0.1-0.2-0.1-0.4,0-0.6l6.9-11.8c0.1-0.2,0.3-0.3,0.6-0.2c0.2,0.1,0.4,0.3,0.4,0.5  v23.7c0,0.2-0.2,0.4-0.4,0.5C13.8,30.8,13.7,30.8,13.7,30.8z M7.4,18.4l5.8,10V8.5C13.2,8.5,7.4,18.4,7.4,18.4z"/>
<path class="st1" d="M73.4,12.4v-1.6H78v15.1c0,2.5-0.8,4.4-2.4,5.7s-3.6,1.9-5.9,1.9c-3.6,0-6.1-1.3-7.5-3.8l4.1-2.4  c0.7,1.3,2,2,3.6,2c1.1,0,2-0.3,2.7-0.9c0.6-0.6,0.9-1.4,0.9-2.5v-1.5c-1.1,1.4-2.7,2.1-4.6,2.1c-2.2,0-4.1-0.8-5.6-2.4  s-2.2-3.5-2.2-5.7s0.7-4.1,2.2-5.7s3.3-2.4,5.6-2.4C70.8,10.3,72.3,11,73.4,12.4z M66.8,21c0.7,0.7,1.7,1,2.8,1s2-0.3,2.8-1  c0.7-0.7,1.1-1.5,1.1-2.7c0-1-0.4-2-1.1-2.7c-0.7-0.7-1.7-1-2.8-1s-2,0.3-2.8,1c-0.7,0.7-1.1,1.5-1.1,2.7S66.1,20.4,66.8,21z   M86.3,10.7v2.8c0.3-1,0.9-1.8,1.8-2.3c0.9-0.6,1.9-0.8,3-0.8v5.4c-1.2-0.2-2.3,0-3.3,0.6s-1.5,1.6-1.5,3v7.2h-4.8V10.7H86.3z   M104.4,12.2v-1.5h4.8v15.9h-4.8v-1.5c-1.1,1.3-2.7,1.9-4.7,1.9c-2.1,0-3.9-0.8-5.4-2.4s-2.2-3.6-2.2-6s0.7-4.3,2.2-5.9  s3.3-2.4,5.4-2.4C101.7,10.3,103.3,10.9,104.4,12.2z M96.8,18.7c0,1.2,0.3,2.1,1,2.8s1.6,1,2.7,1s2-0.3,2.7-1s1-1.6,1-2.8  s-0.3-2.1-1-2.8s-1.6-1-2.7-1s-2,0.3-2.7,1C97.2,16.6,96.8,17.5,96.8,18.7z M122.2,10.3c2.1,0,3.9,0.8,5.4,2.4s2.2,3.6,2.2,5.9  c0,2.4-0.7,4.4-2.2,6s-3.3,2.4-5.4,2.4s-3.6-0.6-4.7-1.9V33h-4.8V10.7h4.8v1.5C118.5,10.9,120.1,10.3,122.2,10.3z M118.5,21.5  c0.7,0.7,1.6,1,2.7,1s2-0.3,2.7-1s1.1-1.6,1.1-2.8s-0.4-2.1-1.1-2.8s-1.6-1-2.7-1s-2,0.3-2.7,1s-1,1.6-1,2.8  C117.4,19.9,117.8,20.8,118.5,21.5z M141.8,10.3c1.7,0,3.1,0.6,4.2,1.7c1.1,1.2,1.7,2.8,1.7,4.8v9.8H143v-9.1c0-0.9-0.3-1.6-0.8-2.1  s-1.2-0.8-2-0.8c-0.9,0-1.7,0.3-2.2,0.8c-0.5,0.6-0.8,1.4-0.8,2.4v8.7h-4.8V4.4h4.8v7.9C138.2,10.9,139.7,10.3,141.8,10.3z   M155.8,26.6H151V3.4h4.8C155.8,3.4,155.8,26.6,155.8,26.6z M164.1,26.6h-4.8V10.7h4.8V26.6z M176.9,10.3c1.7,0,3.1,0.6,4.2,1.7  c1.1,1.2,1.7,2.8,1.7,4.8v9.8H178v-9.1c0-0.9-0.3-1.6-0.8-2.1s-1.2-0.8-2-0.8c-0.9,0-1.7,0.3-2.2,0.8c-0.5,0.6-0.8,1.4-0.8,2.4v8.7  h-4.8V10.7h4.8v1.5C173.3,10.9,174.8,10.3,176.9,10.3L176.9,10.3z M197.6,12.2v-1.5h4.8V33h-4.8v-7.9c-1.1,1.3-2.7,1.9-4.7,1.9  c-2.1,0-3.9-0.8-5.4-2.4s-2.2-3.6-2.2-6s0.7-4.3,2.2-5.9s3.3-2.4,5.4-2.4S196.5,10.9,197.6,12.2z M190.1,18.7c0,1.2,0.3,2.1,1,2.8  s1.6,1,2.7,1s2-0.3,2.7-1s1-1.6,1-2.8s-0.3-2.1-1-2.8s-1.6-1-2.7-1s-2,0.3-2.7,1S190.1,17.5,190.1,18.7z"/>
<linearGradient id="SVGID_2_" gradientUnits="userSpaceOnUse" x1="161.75" y1="34.476" x2="161.75" y2="30.268" gradientTransform="matrix(1 0 0 -1 0 38)">
	<stop offset="0" style="stop-color:#FE0071"/>
	<stop offset="1" style="stop-color:#FF052A"/>
</linearGradient>
<path class="st2" d="M163,4.2V3.6h0.9v4H163V7.1c-0.3,0.5-0.8,0.7-1.4,0.7c-0.5,0-1-0.2-1.4-0.6s-0.6-0.9-0.6-1.5s0.2-1.1,0.6-1.5  s0.9-0.6,1.4-0.6C162.2,3.5,162.6,3.7,163,4.2z M160.8,6.5c0.2,0.2,0.5,0.4,0.9,0.4s0.7-0.1,0.9-0.4c0.2-0.2,0.4-0.6,0.4-0.9  s-0.1-0.7-0.4-0.9c-0.2-0.2-0.5-0.4-0.9-0.4s-0.7,0.1-0.9,0.4c-0.2,0.2-0.4,0.5-0.4,0.9S160.6,6.3,160.8,6.5z"/>
<linearGradient id="SVGID_3_" gradientUnits="userSpaceOnUse" x1="167.8" y1="34.476" x2="167.8" y2="30.372" gradientTransform="matrix(1 0 0 -1 0 38)">
	<stop offset="0" style="stop-color:#FE0071"/>
	<stop offset="1" style="stop-color:#FF052A"/>
</linearGradient>
<path class="st3" d="M168.1,3.5c0.5,0,0.8,0.1,1.1,0.4s0.4,0.7,0.4,1.2v2.5h-0.9V5.3c0-0.3-0.1-0.5-0.2-0.7  c-0.2-0.2-0.4-0.2-0.7-0.2s-0.6,0.1-0.7,0.3c-0.2,0.2-0.3,0.5-0.3,0.9v2.1H166v-4h0.9v0.5C167.2,3.7,167.6,3.5,168.1,3.5z"/>
<linearGradient id="SVGID_4_" gradientUnits="userSpaceOnUse" x1="173.75" y1="34.476" x2="173.75" y2="30.268" gradientTransform="matrix(1 0 0 -1 0 38)">
	<stop offset="0" style="stop-color:#FE0071"/>
	<stop offset="1" style="stop-color:#FF052A"/>
</linearGradient>
<path class="st4" d="M175,4.2V3.6h0.9v4H175V7.1c-0.3,0.5-0.8,0.7-1.4,0.7c-0.5,0-1-0.2-1.4-0.6s-0.6-0.9-0.6-1.5s0.2-1.1,0.6-1.5  s0.9-0.6,1.4-0.6C174.2,3.5,174.7,3.7,175,4.2z M172.8,6.5c0.2,0.2,0.5,0.4,0.9,0.4s0.7-0.1,0.9-0.4c0.2-0.2,0.4-0.6,0.4-0.9  s-0.1-0.7-0.4-0.9c-0.2-0.2-0.5-0.4-0.9-0.4s-0.7,0.1-0.9,0.4c-0.2,0.2-0.4,0.5-0.4,0.9C172.5,6,172.6,6.3,172.8,6.5z"/>
<linearGradient id="SVGID_5_" gradientUnits="userSpaceOnUse" x1="178.45" y1="36.211" x2="178.45" y2="30.372" gradientTransform="matrix(1 0 0 -1 0 38)">
	<stop offset="0" style="stop-color:#FE0071"/>
	<stop offset="1" style="stop-color:#FF052A"/>
</linearGradient>
<path class="st5" d="M178.9,7.6H178V1.8h0.9C178.9,1.8,178.9,7.6,178.9,7.6z"/>
<linearGradient id="SVGID_6_" gradientUnits="userSpaceOnUse" x1="190.9625" y1="36.076" x2="190.9625" y2="30.376" gradientTransform="matrix(1 0 0 -1 0 38)">
	<stop offset="0" style="stop-color:#FE0071"/>
	<stop offset="1" style="stop-color:#FF052A"/>
</linearGradient>
<path class="st6" d="M191.3,2.9C191.2,3,191.1,3,190.9,3c-0.2,0-0.3-0.1-0.4-0.2c-0.1,0-0.1-0.2-0.1-0.3c0-0.2,0.1-0.3,0.2-0.4  c0.1-0.1,0.2-0.2,0.4-0.2s0.3,0.1,0.4,0.2c0.1,0.1,0.2,0.2,0.2,0.4S191.4,2.8,191.3,2.9L191.3,2.9z M191.4,7.6h-0.9v-4h0.9V7.6z"/>
<linearGradient id="SVGID_7_" gradientUnits="userSpaceOnUse" x1="187.1375" y1="35.492" x2="187.1375" y2="30.337" gradientTransform="matrix(1 0 0 -1 0 38)">
	<stop offset="0" style="stop-color:#FE0071"/>
	<stop offset="1" style="stop-color:#FF052A"/>
</linearGradient>
<path class="st7" d="M188.4,3.6v0.8h-1v1.9c0,0.2,0,0.3,0.1,0.4s0.2,0.1,0.3,0.1h0.5v0.8c-0.7,0.1-1.1,0-1.4-0.2s-0.4-0.6-0.4-1.1  V4.5h-0.7V3.6h0.7V2.8l0.9-0.3v1.1H188.4L188.4,3.6z"/>
<linearGradient id="SVGID_8_" gradientUnits="userSpaceOnUse" x1="182.8" y1="34.372" x2="182.8" y2="28.772" gradientTransform="matrix(1 0 0 -1 0 38)">
	<stop offset="0" style="stop-color:#FE0071"/>
	<stop offset="1" style="stop-color:#FF052A"/>
</linearGradient>
<path class="st8" d="M182.9,6.5l1-2.9h0.9l-1.5,4.1c-0.4,1-1,1.5-2,1.5V8.4c0.3,0,0.5,0,0.6-0.2c0.2-0.1,0.3-0.3,0.4-0.6V7.5  l-1.5-3.9h0.9L182.9,6.5L182.9,6.5z"/>
<linearGradient id="SVGID_9_" gradientUnits="userSpaceOnUse" x1="195.0125" y1="34.476" x2="195.0125" y2="30.268" gradientTransform="matrix(1 0 0 -1 0 38)">
	<stop offset="0" style="stop-color:#FE0071"/>
	<stop offset="1" style="stop-color:#FF052A"/>
</linearGradient>
<path class="st9" d="M195.2,7.7c-0.6,0-1.1-0.2-1.5-0.6s-0.6-0.9-0.6-1.5s0.2-1.1,0.6-1.5s0.9-0.6,1.5-0.6c0.4,0,0.7,0.1,1.1,0.3  c0.3,0.2,0.6,0.4,0.7,0.8L196.2,5c-0.1-0.2-0.2-0.3-0.4-0.5c-0.2-0.1-0.4-0.2-0.6-0.2c-0.4,0-0.6,0.1-0.9,0.4  c-0.2,0.2-0.4,0.5-0.4,0.9s0.1,0.7,0.4,0.9c0.2,0.2,0.5,0.4,0.9,0.4c0.2,0,0.4-0.1,0.6-0.2s0.3-0.3,0.4-0.5l0.7,0.4  c-0.2,0.3-0.4,0.6-0.7,0.8C195.9,7.6,195.5,7.7,195.2,7.7z"/>
<linearGradient id="SVGID_10_" gradientUnits="userSpaceOnUse" x1="200.1143" y1="34.476" x2="200.1143" y2="30.268" gradientTransform="matrix(1 0 0 -1 0 38)">
	<stop offset="0" style="stop-color:#FE0071"/>
	<stop offset="1" style="stop-color:#FF052A"/>
</linearGradient>
<path class="st10" d="M199.5,4.7c0,0.1,0.1,0.2,0.2,0.3s0.3,0.2,0.6,0.2c0.2,0,0.3,0.1,0.5,0.1c0.2,0,0.3,0.1,0.4,0.2  c0.1,0.1,0.3,0.2,0.4,0.4c0.1,0.2,0.1,0.3,0.1,0.5c0,0.4-0.1,0.7-0.4,0.9s-0.7,0.3-1.1,0.3s-0.7-0.1-1-0.2c-0.3-0.2-0.5-0.4-0.6-0.7  l0.7-0.4c0.1,0.4,0.4,0.6,0.9,0.6s0.7-0.1,0.7-0.4c0-0.2-0.3-0.4-0.8-0.5c-0.2,0-0.4-0.1-0.5-0.1c-0.2,0-0.3-0.1-0.4-0.2  c-0.1-0.1-0.3-0.2-0.4-0.4c-0.1-0.1-0.1-0.3-0.1-0.5c0-0.4,0.1-0.7,0.4-0.9c0.3-0.2,0.6-0.3,1-0.3c0.3,0,0.6,0.1,0.9,0.2  s0.5,0.4,0.6,0.6l-0.7,0.4c-0.1-0.3-0.4-0.5-0.8-0.5c-0.2,0-0.3,0-0.4,0.1S199.5,4.6,199.5,4.7L199.5,4.7z"/>
</svg>