<svg xmlns:xlink="http://www.w3.org/1999/xlink" xmlns="http://www.w3.org/2000/svg" width="137.3229217529297" height="61.79531478881836"><g transform="translate(19.22447967529297, 3.089583396911621)"><g class="doughnut" transform="translate(49.436981201171875, 49.436981201171875)"><g class="arc"><path d="M-44.1012592446161,-0.9496177860624337A4.943698120117187,4.943698120117187,0,0,1,-49.00139916068456,-6.548128784644024A49.436981201171875,49.436981201171875,0,0,1,-19.959081274202237,-45.228864511225694A4.943698120117187,4.943698120117187,0,0,1,-13.215771058140504,-42.08522586655867L-13.215771058140502,-42.08522586655867A4.943698120117187,4.943698120117187,0,0,1,-15.967265019361788,-36.183091608980554A39.5495849609375,39.5495849609375,0,0,0,-39.201119328547655,-5.238503027715229A4.943698120117187,4.943698120117187,0,0,1,-44.1012592446161,-0.9496177860624337Z" style="" fill="#38FF17"></path></g><g class="arc"><path d="M-11.391947130615959,-42.61509569945484A4.943698120117187,4.943698120117187,0,0,1,-7.382827824416058,-48.88260389545599A49.436981201171875,49.436981201171875,0,0,1,49.001399160684564,-6.548128784644008A4.943698120117187,4.943698120117187,0,0,1,44.10125924461611,-0.9496177860624204L44.10125924461611,-0.9496177860624204A4.943698120117187,4.943698120117187,0,0,1,39.201119328547655,-5.238503027715206A39.5495849609375,39.5495849609375,0,0,0,-5.906262259532852,-39.10608311636479A4.943698120117187,4.943698120117187,0,0,1,-11.391947130615959,-42.61509569945484Z" style="" fill="#FF052A"></path></g></g><g class="needle" transform="translate(49.436981201171875, 49.436981201171875)"><path d="M -3.560499035767277 -0.8194388504060639 L -7.5858629355055465 -27.964570931192846 L 3.5604990357672768 -2.8882800369230384" fill="#F20350"></path><circle cx="0" cy="-1.8538594436645508" r="3.7077188873291016" fill="#464A4F"></circle></g></g></svg>