<svg xmlns="http://www.w3.org/2000/svg" xmlns:xlink="http://www.w3.org/1999/xlink" version="1.1" id="Calque_1" x="0px" y="0px" viewBox="0 0 85 85" style="enable-background:new 0 0 85 85;" xml:space="preserve" width="85"  height="85" >
<style type="text/css">
	.st0{fill:#00ccff;}
</style>
<g id="layer1" transform="translate(-539.17946,-568.85777)">
	<path id="path3611" class="st0" d="M565.7,644.5c31.8,0,49.2-26.3,49.2-49.2c0-0.7,0-1.5,0-2.2c3.4-2.4,6.3-5.5,8.6-8.9   c-3.1,1.4-6.4,2.3-9.9,2.7c3.6-2.1,6.3-5.5,7.6-9.6c-3.3,2-7,3.4-11,4.2c-3.2-3.4-7.6-5.5-12.6-5.5c-9.5,0-17.3,7.7-17.3,17.3   c0,1.4,0.2,2.7,0.4,3.9c-14.4-0.7-27.1-7.6-35.6-18.1c-1.5,2.6-2.3,5.5-2.3,8.7c0,6,3.1,11.3,7.7,14.4c-2.8-0.1-5.5-0.9-7.8-2.2   c0,0.1,0,0.1,0,0.2c0,8.4,6,15.4,13.9,16.9c-1.5,0.4-3,0.6-4.6,0.6c-1.1,0-2.2-0.1-3.2-0.3c2.2,6.9,8.6,11.9,16.1,12   c-5.9,4.6-13.4,7.4-21.5,7.4c-1.4,0-2.8-0.1-4.1-0.2C546.8,641.7,555.9,644.5,565.7,644.5"/>
</g>
</svg>