<svg xmlns="http://www.w3.org/2000/svg" xmlns:xlink="http://www.w3.org/1999/xlink" version="1.1" id="Calque_1" x="0px" y="0px" viewBox="0 0 99.9 109.2" style="enable-background:new 0 0 99.9 109.2;" xml:space="preserve" width="99.9"  height="109.2" >
<style type="text/css">
	.st0{fill:#ECE7FD;}
	.st1{fill-rule:evenodd;clip-rule:evenodd;fill:#ECE7FD;}
</style>
<g>
	<path class="st0" d="M99.9,35.2c0-0.5,0-1.1-0.1-1.6c-0.4-1.5-1.1-2.8-2.2-3.9c-4.9-5-9.9-9.8-14.7-14.8c-4-4.1-8.1-8.1-12.1-12.1   c-0.3-0.3-0.6-0.6-0.9-0.8c-1.5-1.1-3.1-1.9-5-1.9c0,0,0,0,0,0c-0.1,0-0.2,0-0.3,0c-0.1,0-0.2,0-0.3,0c-0.2,0-0.5,0-0.7,0   c-0.1,0-0.2,0-0.3,0c-0.1,0-0.2,0-0.3,0c0,0,0,0,0,0c0,0,0,0,0,0c-0.5,0-1,0-1.5,0.2c-1.6,0.4-3,1.2-4.2,2.4c-5,5-10,10-14.9,15   C34.5,25.3,26.8,33,19.1,40.7C19,40.8,18.9,41,18.7,41c-0.1-0.1-0.1-0.3-0.1-0.4c0-7.2,0-14.5,0-21.7c0-0.2,0-0.3,0-0.5   c0.1-0.6,0-1.3,0-1.9c-0.3-2.5-1.4-4.5-3.4-6.1c-2.7-2.1-5.7-2.7-8.9-1.6c-1.6,0.5-3,1.5-4.1,2.8C0.8,13.1,0,14.9,0,17   c0,25.1,0,50.1,0,75.2c0,0.4,0,0.9,0.1,1.3c0.4,2,1.4,3.7,3,5.1c2.1,1.8,4.6,2.6,7.4,2.2c2.6-0.3,4.6-1.6,6.2-3.6   c1.4-1.7,2-3.7,2-5.9c0-0.4-0.1-0.7-0.1-1.1c0-7.2,0-14.4,0-21.5c0-0.1,0-0.2,0-0.3c0-0.1,0-0.2,0.1-0.2c0.1,0,0.1,0,0.2,0.1   c0.1,0.1,0.1,0.1,0.2,0.2c1.5,1.5,3,3,4.5,4.5C34.8,84.2,46,95.4,57.2,106.6c1.7,1.7,3.7,2.6,6,2.5c0,0,0,0,0,0c0.4,0,0.7,0,1.1,0   c0,0,0,0,0,0c0.4,0,0.9,0,1.3-0.1c1.8-0.3,3.3-1.1,4.6-2.3c8.8-8.8,17.5-17.5,26.3-26.3c0.5-0.5,1.1-1.1,1.5-1.7   c1.1-1.4,1.8-2.9,1.7-4.8c0,0,0,0,0,0c0-0.1,0-0.2,0-0.3c0-0.1,0-0.3,0-0.4c0-0.2,0-0.4,0-0.6c0-0.1,0-0.1,0-0.2c0-0.1,0-0.2,0-0.3   c0,0,0,0,0,0c0-0.6,0-1.2-0.2-1.7c-0.6-2-1.7-3.6-3.3-4.8c-2.1-1.6-4.4-2.1-6.9-1.8c-2.1,0.3-3.8,1.1-5.3,2.6   c-6.7,6.6-13.3,13.3-20,19.9c-0.4,0.4-0.4,0.4-0.8,0C53,75.9,42.6,65.5,32.2,55.1c-0.5-0.5-0.5-0.5,0-1   c10.4-10.4,20.8-20.8,31.3-31.3c0.4-0.4,0.4-0.4,0.8,0c6.6,6.6,13.2,13.2,19.9,19.9c0.9,0.9,1.8,1.5,2.9,2c2.1,0.9,4.2,1,6.4,0.3   c1.7-0.5,3.1-1.4,4.3-2.8c1.3-1.5,2.1-3.2,2.1-5.2l0,0l0,0c0-0.1,0-0.2,0-0.3c0-0.2,0-0.3,0-0.5c0-0.1,0-0.2,0-0.3   c0-0.1,0-0.3,0-0.4C99.9,35.4,99.9,35.3,99.9,35.2C99.9,35.2,99.9,35.2,99.9,35.2z"/>
	<path class="st0" d="M54.6,54.5c0,5.1,4.1,9.3,9.2,9.3c5.1,0,9.3-4.1,9.3-9.3c0-5.1-4.1-9.2-9.2-9.2C58.9,45.3,54.6,49.3,54.6,54.5   z"/>
</g>
</svg>