<svg xmlns:xlink="http://www.w3.org/1999/xlink" class="yt" xmlns="http://www.w3.org/2000/svg" viewBox="0 0 667.1 441.4" width="707"  height="468" ><path d="M118.5 2.8l136.7 78.9L39.4 206.3c-10.5 6.1-16.8 16.9-16.8 29.1 0 12.1 6.3 23 16.8 29.1l38.9 22.4-78 45 78.1-45.1 189.2 109.3-77.7 44.8 77.7-44.8 34.1 19.7a60.1 60.1 0 0 0 59.8 0l34.3-19.8 77.7 44.8-77.7-44.8 193.8-111.9 77.3 44.6-77.3-44.6 34.1-19.7c10.5-6.1 16.8-16.9 16.8-29.1 0-12.1-6.3-23-16.8-29.1l-216-124.7L548.2.4 407.6 81.6l-46.2-26.7c-18.4-10.7-41.4-10.7-59.8 0l-46.4 26.8L118.5 2.8" class="ytb" stroke="#5519EE" fill-opacity="0" fill="#000000" stroke-width="5px"></path><path d="M118.5 2.8l136.7 78.9L39.4 206.3c-10.5 6.1-16.8 16.9-16.8 29.1 0 12.1 6.3 23 16.8 29.1l38.9 22.4-78 45 78.1-45.1 189.2 109.3-77.7 44.8 77.7-44.8 34.1 19.7a60.1 60.1 0 0 0 59.8 0l34.3-19.8 77.7 44.8-77.7-44.8 193.8-111.9 77.3 44.6-77.3-44.6 34.1-19.7c10.5-6.1 16.8-16.9 16.8-29.1 0-12.1-6.3-23-16.8-29.1l-216-124.7L548.2.4 407.6 81.6l-46.2-26.7c-18.4-10.7-41.4-10.7-59.8 0l-46.4 26.8L118.5 2.8" class="ytt" stroke="#EDE8FD" fill-opacity="0" fill="#000000" stroke-width="5px"></path></svg>