<svg xmlns="http://www.w3.org/2000/svg" xmlns:xlink="http://www.w3.org/1999/xlink" version="1.1" id="Calque_1" x="0px" y="0px" viewBox="0 0 246.2 284.3" style="enable-background:new 0 0 246.2 284.3;" xml:space="preserve" width="248"  height="286" >
<style type="text/css">
	.st0{fill:url(#SVGID_1_);}
	.st1{fill:url(#SVGID_2_);}
	.st2{fill:url(#SVGID_3_);}
	.st3{fill:url(#SVGID_4_);}
</style>
<g>
	<linearGradient id="SVGID_1_" gradientUnits="userSpaceOnUse" x1="84.4408" y1="-65.041" x2="213.9198" y2="390.7242">
		<stop offset="0" style="stop-color:#4A13D6"/>
		<stop offset="1" style="stop-color:#B754FF"/>
	</linearGradient>
	<polygon class="st0" points="123.1,142.2 246.2,71.1 123.1,0 0,71.1  "/>
	<linearGradient id="SVGID_2_" gradientUnits="userSpaceOnUse" x1="249.8188" y1="221.2484" x2="130.5573" y2="141.5246">
		<stop offset="0" style="stop-color:#4A13D6"/>
		<stop offset="1" style="stop-color:#9843FF"/>
	</linearGradient>
	<polygon class="st1" points="123.1,284.3 246.2,213.2 246.2,71.1 123.1,142.2  "/>
	<linearGradient id="SVGID_3_" gradientUnits="userSpaceOnUse" x1="-23.2973" y1="259.4628" x2="154.9464" y2="87.7007">
		<stop offset="0" style="stop-color:#0D0091"/>
		<stop offset="1" style="stop-color:#6D29E5"/>
	</linearGradient>
	<polygon class="st2" points="123.1,284.3 0,213.2 0,71.1 123.1,142.2  "/>
	<linearGradient id="SVGID_4_" gradientUnits="userSpaceOnUse" x1="139.6974" y1="67.8991" x2="103.7534" y2="67.8991">
		<stop offset="0" style="stop-color:#EC85FF"/>
		<stop offset="1" style="stop-color:#9843FF"/>
	</linearGradient>
	<path class="st3" d="M129.3,102.3L184,70.7c2.7-1.6,2.7-5.5,0-7.1l-50-28.9c-6.8-3.9-15.1-3.9-21.8,0L63.4,62.9   c-3.2,1.9-3.2,6.6,0,8.4l53.6,30.9C120.8,104.5,125.5,104.5,129.3,102.3z"/>
</g>
</svg>