<svg xmlns="http://www.w3.org/2000/svg" xmlns:xlink="http://www.w3.org/1999/xlink" viewBox="0 0 533.4 345.8" width="571"  height="370" ><style>.I{fill:#151229}.J{fill:#4f2ae4}.K{fill:#06f24f}.L{fill:#ec02f4}.M{fill:#fcff00}</style><path d="M505 345.8H28.3C12.7 345.8 0 333.2 0 317.5V28.3C0 12.7 12.7 0 28.3 0H505c15.7 0 28.3 12.7 28.3 28.3v289.1c.1 15.8-12.6 28.4-28.3 28.4z" fill="#0E0C1B"></path><path d="M93.4 0h-65C12.7 0 0 12.7 0 28.3v289.1c0 15.7 12.7 28.3 28.3 28.3h65c15.7 0 28.3-12.7 28.3-28.3V28.3C121.7 12.7 109 0 93.4 0z" fill="#110E20"></path><use xlink:href="#B" class="I" fill="#151229"></use><circle cx="99.5" cy="24.5" r="3.4" class="L" fill="#EC02F4"></circle><use xlink:href="#B" y="14.2" class="I" fill="#151229"></use><circle cx="99.5" cy="38.7" r="3.4" class="L" fill="#EC02F4"></circle><use xlink:href="#C" class="I" fill="#151229"></use><circle cx="99.5" cy="52.9" r="3.4" class="L" fill="#EC02F4"></circle><use xlink:href="#C" y="14.2" class="I" fill="#151229"></use><circle cx="99.5" cy="67.1" r="3.4" class="M" fill="#FCFF00"></circle><use xlink:href="#C" y="28.4" class="I" fill="#151229"></use><circle cx="99.5" cy="81.3" r="3.4" class="M" fill="#FCFF00"></circle><use xlink:href="#C" y="42.6" class="I" fill="#151229"></use><circle cx="99.5" cy="95.5" r="3.4" class="M" fill="#FCFF00"></circle><use xlink:href="#C" y="56.8" class="I" fill="#151229"></use><circle cx="99.5" cy="109.7" r="3.4" class="K" fill="#06F24F"></circle><use xlink:href="#C" y="71" class="I" fill="#151229"></use><circle cx="99.5" cy="123.9" r="3.4" class="K" fill="#06F24F"></circle><use xlink:href="#B" y="113.5" class="I" fill="#151229"></use><circle cx="99.5" cy="138.1" r="3.4" class="K" fill="#06F24F"></circle><use xlink:href="#B" y="127.7" class="I" fill="#151229"></use><circle cx="99.5" cy="152.2" r="3.4" class="K" fill="#06F24F"></circle><use xlink:href="#B" y="141.9" class="I" fill="#151229"></use><circle cx="99.5" cy="166.4" r="3.4" class="K" fill="#06F24F"></circle><use xlink:href="#C" y="127.7" class="I" fill="#151229"></use><circle cx="99.5" cy="180.6" r="3.4" class="K" fill="#06F24F"></circle><use xlink:href="#C" y="141.9" class="I" fill="#151229"></use><circle cx="99.5" cy="194.8" r="3.4" class="J" fill="#4F2AE4"></circle><use xlink:href="#C" y="156.1" class="I" fill="#151229"></use><circle cx="99.5" cy="209" r="3.4" class="J" fill="#4F2AE4"></circle><use xlink:href="#C" y="170.3" class="I" fill="#151229"></use><circle cx="99.5" cy="223.2" r="3.4" class="J" fill="#4F2AE4"></circle><use xlink:href="#C" y="184.5" class="I" fill="#151229"></use><circle cx="99.5" cy="237.4" r="3.4" class="J" fill="#4F2AE4"></circle><use xlink:href="#C" y="198.7" class="I" fill="#151229"></use><circle cx="99.5" cy="251.6" r="3.4" class="J" fill="#4F2AE4"></circle><use xlink:href="#B" y="241.2" class="I" fill="#151229"></use><circle cx="99.5" cy="265.8" r="3.4" class="J" fill="#4F2AE4"></circle><use xlink:href="#B" y="255.4" class="I" fill="#151229"></use><circle cx="99.5" cy="279.9" r="3.4" class="J" fill="#4F2AE4"></circle><use xlink:href="#B" y="269.6" class="I" fill="#151229"></use><circle cx="99.5" cy="294.1" r="3.4" class="J" fill="#4F2AE4"></circle><use xlink:href="#C" y="255.4" class="I" fill="#151229"></use><circle cx="99.5" cy="308.3" r="3.4" class="J" fill="#4F2AE4"></circle><use xlink:href="#C" y="269.6" class="I" fill="#151229"></use><circle cx="99.5" cy="322.5" r="3.4" class="J" fill="#4F2AE4"></circle><defs><path id="B" d="M100.3 28.9H21.4c-2.4 0-4.3-1.9-4.3-4.3h0c0-2.4 1.9-4.3 4.3-4.3h78.8c2.4 0 4.3 1.9 4.3 4.3h0c.1 2.3-1.9 4.3-4.2 4.3z"></path><path id="C" d="M100.3 57.2H21.4c-2.4 0-4.3-1.9-4.3-4.3h0c0-2.4 1.9-4.3 4.3-4.3h78.8c2.4 0 4.3 1.9 4.3 4.3h0c.1 2.4-1.9 4.3-4.2 4.3z"></path><path id="B" d="M100.3 28.9H21.4c-2.4 0-4.3-1.9-4.3-4.3h0c0-2.4 1.9-4.3 4.3-4.3h78.8c2.4 0 4.3 1.9 4.3 4.3h0c.1 2.3-1.9 4.3-4.2 4.3z"></path><path id="B" d="M100.3 28.9H21.4c-2.4 0-4.3-1.9-4.3-4.3h0c0-2.4 1.9-4.3 4.3-4.3h78.8c2.4 0 4.3 1.9 4.3 4.3h0c.1 2.3-1.9 4.3-4.2 4.3z"></path><path id="C" d="M100.3 57.2H21.4c-2.4 0-4.3-1.9-4.3-4.3h0c0-2.4 1.9-4.3 4.3-4.3h78.8c2.4 0 4.3 1.9 4.3 4.3h0c.1 2.4-1.9 4.3-4.2 4.3z"></path><path id="C" d="M100.3 57.2H21.4c-2.4 0-4.3-1.9-4.3-4.3h0c0-2.4 1.9-4.3 4.3-4.3h78.8c2.4 0 4.3 1.9 4.3 4.3h0c.1 2.4-1.9 4.3-4.2 4.3z"></path><path id="C" d="M100.3 57.2H21.4c-2.4 0-4.3-1.9-4.3-4.3h0c0-2.4 1.9-4.3 4.3-4.3h78.8c2.4 0 4.3 1.9 4.3 4.3h0c.1 2.4-1.9 4.3-4.2 4.3z"></path><path id="C" d="M100.3 57.2H21.4c-2.4 0-4.3-1.9-4.3-4.3h0c0-2.4 1.9-4.3 4.3-4.3h78.8c2.4 0 4.3 1.9 4.3 4.3h0c.1 2.4-1.9 4.3-4.2 4.3z"></path><path id="C" d="M100.3 57.2H21.4c-2.4 0-4.3-1.9-4.3-4.3h0c0-2.4 1.9-4.3 4.3-4.3h78.8c2.4 0 4.3 1.9 4.3 4.3h0c.1 2.4-1.9 4.3-4.2 4.3z"></path><path id="C" d="M100.3 57.2H21.4c-2.4 0-4.3-1.9-4.3-4.3h0c0-2.4 1.9-4.3 4.3-4.3h78.8c2.4 0 4.3 1.9 4.3 4.3h0c.1 2.4-1.9 4.3-4.2 4.3z"></path><path id="B" d="M100.3 28.9H21.4c-2.4 0-4.3-1.9-4.3-4.3h0c0-2.4 1.9-4.3 4.3-4.3h78.8c2.4 0 4.3 1.9 4.3 4.3h0c.1 2.3-1.9 4.3-4.2 4.3z"></path><path id="B" d="M100.3 28.9H21.4c-2.4 0-4.3-1.9-4.3-4.3h0c0-2.4 1.9-4.3 4.3-4.3h78.8c2.4 0 4.3 1.9 4.3 4.3h0c.1 2.3-1.9 4.3-4.2 4.3z"></path><path id="B" d="M100.3 28.9H21.4c-2.4 0-4.3-1.9-4.3-4.3h0c0-2.4 1.9-4.3 4.3-4.3h78.8c2.4 0 4.3 1.9 4.3 4.3h0c.1 2.3-1.9 4.3-4.2 4.3z"></path><path id="C" d="M100.3 57.2H21.4c-2.4 0-4.3-1.9-4.3-4.3h0c0-2.4 1.9-4.3 4.3-4.3h78.8c2.4 0 4.3 1.9 4.3 4.3h0c.1 2.4-1.9 4.3-4.2 4.3z"></path><path id="C" d="M100.3 57.2H21.4c-2.4 0-4.3-1.9-4.3-4.3h0c0-2.4 1.9-4.3 4.3-4.3h78.8c2.4 0 4.3 1.9 4.3 4.3h0c.1 2.4-1.9 4.3-4.2 4.3z"></path><path id="C" d="M100.3 57.2H21.4c-2.4 0-4.3-1.9-4.3-4.3h0c0-2.4 1.9-4.3 4.3-4.3h78.8c2.4 0 4.3 1.9 4.3 4.3h0c.1 2.4-1.9 4.3-4.2 4.3z"></path><path id="C" d="M100.3 57.2H21.4c-2.4 0-4.3-1.9-4.3-4.3h0c0-2.4 1.9-4.3 4.3-4.3h78.8c2.4 0 4.3 1.9 4.3 4.3h0c.1 2.4-1.9 4.3-4.2 4.3z"></path><path id="C" d="M100.3 57.2H21.4c-2.4 0-4.3-1.9-4.3-4.3h0c0-2.4 1.9-4.3 4.3-4.3h78.8c2.4 0 4.3 1.9 4.3 4.3h0c.1 2.4-1.9 4.3-4.2 4.3z"></path><path id="C" d="M100.3 57.2H21.4c-2.4 0-4.3-1.9-4.3-4.3h0c0-2.4 1.9-4.3 4.3-4.3h78.8c2.4 0 4.3 1.9 4.3 4.3h0c.1 2.4-1.9 4.3-4.2 4.3z"></path><path id="B" d="M100.3 28.9H21.4c-2.4 0-4.3-1.9-4.3-4.3h0c0-2.4 1.9-4.3 4.3-4.3h78.8c2.4 0 4.3 1.9 4.3 4.3h0c.1 2.3-1.9 4.3-4.2 4.3z"></path><path id="B" d="M100.3 28.9H21.4c-2.4 0-4.3-1.9-4.3-4.3h0c0-2.4 1.9-4.3 4.3-4.3h78.8c2.4 0 4.3 1.9 4.3 4.3h0c.1 2.3-1.9 4.3-4.2 4.3z"></path><path id="B" d="M100.3 28.9H21.4c-2.4 0-4.3-1.9-4.3-4.3h0c0-2.4 1.9-4.3 4.3-4.3h78.8c2.4 0 4.3 1.9 4.3 4.3h0c.1 2.3-1.9 4.3-4.2 4.3z"></path><path id="C" d="M100.3 57.2H21.4c-2.4 0-4.3-1.9-4.3-4.3h0c0-2.4 1.9-4.3 4.3-4.3h78.8c2.4 0 4.3 1.9 4.3 4.3h0c.1 2.4-1.9 4.3-4.2 4.3z"></path><path id="C" d="M100.3 57.2H21.4c-2.4 0-4.3-1.9-4.3-4.3h0c0-2.4 1.9-4.3 4.3-4.3h78.8c2.4 0 4.3 1.9 4.3 4.3h0c.1 2.4-1.9 4.3-4.2 4.3z"></path></defs></svg>