<svg xmlns="http://www.w3.org/2000/svg" xmlns:xlink="http://www.w3.org/1999/xlink" version="1.1" id="Calque_1" x="0px" y="0px" viewBox="0 0 85 85" style="enable-background:new 0 0 85 85;" xml:space="preserve" width="85"  height="85" >
<style type="text/css">
	.st0{fill:#6000ff;}
</style>
<path id="logo" class="st0" d="M73.5,19.3c0,0-8.9-7-19.4-7.8l-0.9,1.9c9.5,2.3,13.8,5.6,18.4,9.7c-7.8-4-15.6-7.8-29.1-7.8  s-21.2,3.8-29.1,7.8c4.6-4.1,9.7-7.8,18.4-9.7l-0.9-1.9c-11,1-19.4,7.8-19.4,7.8S1.6,33.7-0.1,61.9C9.9,73.5,25,73.6,25,73.6  l3.2-4.2c-5.4-1.9-11.5-5.2-16.7-11.3c6.3,4.7,15.7,9.7,31,9.7s24.7-4.9,31-9.7c-5.2,6-11.4,9.4-16.7,11.3l3.2,4.2  c0,0,15.2-0.1,25.2-11.6C83.4,33.7,73.5,19.3,73.5,19.3z M29.8,54.2c-3.8,0-6.8-3.5-6.8-7.8s3-7.8,6.8-7.8c3.8,0,6.8,3.5,6.8,7.8  S33.6,54.2,29.8,54.2z M55,54.2c-3.8,0-6.8-3.5-6.8-7.8s3-7.8,6.8-7.8s6.8,3.5,6.8,7.8S58.8,54.2,55,54.2z"/>
</svg>