<svg xmlns="http://www.w3.org/2000/svg" xmlns:xlink="http://www.w3.org/1999/xlink" version="1.1" id="Calque_1" x="0px" y="0px" viewBox="0 0 113.3 130.9" style="enable-background:new 0 0 113.3 130.9;" xml:space="preserve" width="141"  height="163" >
<style type="text/css">
	.st0{fill:url(#SVGID_1_);}
	.st1{fill:url(#SVGID_2_);}
	.st2{fill:url(#SVGID_3_);}
	.st3{fill:url(#SVGID_4_);}
</style>
<linearGradient id="SVGID_1_" gradientUnits="userSpaceOnUse" x1="38.856" y1="162.4853" x2="98.453" y2="-47.2937" gradientTransform="matrix(1 0 0 -1 0 132.5511)">
	<stop offset="0" style="stop-color:#421AD2"/>
	<stop offset="1" style="stop-color:#A255FE"/>
</linearGradient>
<path class="st0" d="M56.7,65.4l56.6-32.7L56.7,0L0,32.7L56.7,65.4z"/>
<linearGradient id="SVGID_2_" gradientUnits="userSpaceOnUse" x1="58.3916" y1="78.4169" x2="148.3816" y2="-15.1491" gradientTransform="matrix(1 0 0 -1 0 132.5511)">
	<stop offset="0" style="stop-color:#421AD2"/>
	<stop offset="1" style="stop-color:#8645FB"/>
</linearGradient>
<path class="st1" d="M56.7,130.9l56.6-32.8V32.7L56.7,65.4V130.9z"/>
<linearGradient id="SVGID_3_" gradientUnits="userSpaceOnUse" x1="66.6792" y1="102.6802" x2="-7.2208" y2="2.5592" gradientTransform="matrix(1 0 0 -1 0 132.5511)">
	<stop offset="0" style="stop-color:#602DE1"/>
	<stop offset="0.248" style="stop-color:#441DC4"/>
	<stop offset="0.55" style="stop-color:#290DA6"/>
	<stop offset="0.812" style="stop-color:#180394"/>
	<stop offset="1" style="stop-color:#12008E"/>
</linearGradient>
<path class="st2" d="M56.7,130.9L0,98.1V32.7l56.7,32.7V130.9z"/>
<linearGradient id="SVGID_4_" gradientUnits="userSpaceOnUse" x1="65.7786" y1="99.7936" x2="47.532" y2="99.7936" gradientTransform="matrix(1 0 0 -1 0 132.5511)">
	<stop offset="0" style="stop-color:#EC85FF"/>
	<stop offset="1" style="stop-color:#9843FF"/>
</linearGradient>
<path class="st3" d="M60.5,50.2l27.8-16c1.4-0.8,1.4-2.8,0-3.6L62.9,15.9c-3.5-2-7.7-2-11.1,0L27,30.2c-1.6,1-1.6,3.4,0,4.3  l27.2,15.7C56.2,51.4,58.6,51.4,60.5,50.2z"/>
</svg>